<?xml version="1.0" encoding="UTF-8"?>
<svg id="Layer_2" xmlns="http://www.w3.org/2000/svg" viewBox="0 0 972.46 183.61">
  <defs>
    <style>
      .cls-1 {
        fill: #f2ede0;
      }
    </style>
  </defs>
  <g id="Layer_1-2" data-name="Layer_1">
    <g>
      <path class="cls-1" d="M29.37,3.77h40.57c2.94,0,5.43,2.16,5.84,5.07l23.46,164.26c.51,3.55-2.25,6.74-5.84,6.74h-13.48c-2.94,0-5.43-2.16-5.84-5.07L55.5,44.66c-.96-6.75-10.72-6.76-11.68,0l-18.59,130.11c-.42,2.91-2.9,5.07-5.84,5.07H5.9c-3.59,0-6.35-3.18-5.84-6.74L23.53,8.84c.42-2.91,2.9-5.07,5.84-5.07Z"/>
      <path class="cls-1" d="M118.81,3.77h40.73c2.69,0,5.06,1.78,5.8,4.37l43.26,151.39c1.67,5.83,9.93,5.83,11.6,0L263.45,8.15c.74-2.59,3.11-4.37,5.8-4.37h40.73c3.33,0,6.03,2.7,6.03,6.03v164c0,3.33-2.7,6.03-6.03,6.03h-13.09c-3.33,0-6.03-2.7-6.03-6.03v-80.56c0-14.53-20.59-17.41-24.58-3.44l-24.47,85.66c-.74,2.59-3.11,4.37-5.8,4.37h-43.22c-2.69,0-5.06-1.78-5.8-4.37l-37.23-130.29c-1.92-6.72-11.83-5.34-11.83,1.66v126.97c0,3.33-2.7,6.03-6.03,6.03h-13.09c-3.33,0-6.03-2.7-6.03-6.03V9.8c0-3.33,2.7-6.03,6.03-6.03Z"/>
      <path class="cls-1" d="M421.57.03c54.46-1.35,95.71,39.89,94.36,94.36-1.16,47.07-42.09,88.01-89.16,89.18-54.48,1.36-95.74-39.9-94.38-94.38C333.56,42.13,374.5,1.2,421.57.03ZM432.62,157.97c29.75-3.45,52.32-25.02,57.2-54.18,8.3-49.57-28.1-85.97-77.66-77.66-29.15,4.89-50.72,27.46-54.17,57.21-4.94,42.61,32.02,79.57,74.63,74.62Z"/>
      <path class="cls-1" d="M548.49,3.77c3.57,0,6.46,2.89,6.46,6.46v122.32c0,14.84,10.82,25.91,25.15,25.91s25.15-11.07,25.15-25.91V10.23c0-3.57,2.89-6.46,6.46-6.46h12.23c3.57,0,6.46,2.89,6.46,6.46v122.07c0,28.93-21.88,51.31-50.05,51.31s-50.56-22.39-50.56-51.31V10.23c0-3.57,2.89-6.46,6.46-6.46h12.24Z"/>
      <path class="cls-1" d="M653.03,10.18c0-3.54,2.87-6.41,6.41-6.41h91.44c28.42,0,51.31,21.63,51.31,50.3,0,31.19-19.37,43.01-48.29,43.01-8.55,0-16.85-1.01-25.15-2.77v.76c39.65,8.94,56.12,42.73,73.77,75.31,2.31,4.27-.77,9.45-5.63,9.45h-14.4c-2.28,0-4.39-1.22-5.54-3.19l-40.06-69.07c-1.15-1.98-3.26-3.19-5.54-3.19h-46.75c-3.54,0-6.41,2.87-6.41,6.41v62.64c0,3.54-2.87,6.41-6.41,6.41h-12.34c-3.54,0-6.41-2.87-6.41-6.41V10.18ZM678.19,72.82c0,3.54,2.87,6.41,6.41,6.41h66.28c14.33,0,26.16-10.56,26.16-25.15s-11.82-25.15-26.16-25.15h-66.28c-3.54,0-6.41,2.87-6.41,6.41v37.49Z"/>
      <path class="cls-1" d="M831.49,3.77h12.81c3.41,0,6.17,2.76,6.17,6.17v163.72c0,3.41-2.76,6.17-6.17,6.17h-12.81c-3.41,0-6.17-2.76-6.17-6.17V9.94c0-3.41,2.76-6.17,6.17-6.17Z"/>
      <path class="cls-1" d="M871.85,164.26v-16.29c0-5.74,6.91-8.56,10.97-4.51,8.83,8.81,21.66,13.98,34.05,13.98,14.84,0,30.43-8.3,30.43-24.9,0-35.47-75.45-25.66-75.45-80.74,0-31.94,24.9-50.81,55.34-50.81,12.98,0,25.75,3.63,36.54,10.9,1.72,1.16,2.7,3.16,2.7,5.24v15.48c0,5.6-6.81,8.67-10.78,4.72-7.14-7.09-17.14-11.2-28.21-11.2-14.84,0-30.44,7.04-30.44,24.14,0,36.98,75.46,29.93,75.46,83,0,31.69-25.66,49.3-55.34,49.3-15.03,0-30.27-4.38-42.67-13.15-1.67-1.18-2.61-3.15-2.61-5.19Z"/>
    </g>
  </g>
</svg>